<?xml version="1.0" encoding="utf-8"?>
<!-- Generator: Adobe Illustrator 27.8.1, SVG Export Plug-In . SVG Version: 6.00 Build 0)  -->
<svg version="1.1" xmlns="http://www.w3.org/2000/svg" xmlns:xlink="http://www.w3.org/1999/xlink" x="0px" y="0px"
	 viewBox="0 0 155.99 190.31" style="enable-background:new 0 0 155.99 190.31;" xml:space="preserve">
<style type="text/css">
	.Arched_x0020_Green{fill:url(#SVGID_1_);stroke:#FFFFFF;stroke-width:0.25;stroke-miterlimit:1;}
	.st0{fill:#75A237;}
	.st1{fill:#FFFFFF;}
</style>
<linearGradient id="SVGID_1_" gradientUnits="userSpaceOnUse" x1="-94.4893" y1="-148.5259" x2="-93.7822" y2="-149.233">
	<stop  offset="0" style="stop-color:#20AC4B"/>
	<stop  offset="0.9831" style="stop-color:#19361A"/>
</linearGradient>
<g id="_x2D__Titles">
</g>
<g id="Colour_Stacked_Positive">
	<polygon points="155.99,162.28 127.91,190.35 0.01,190.35 0.01,0.05 155.99,0.05 	"/>
	<g>
		<path class="st1" d="M81.23,25.95H63.71l-0.13,0.1c0,0-14.6,11.07-18.01,13.66c-0.36,0.28-0.72,0.54-1.06,0.8
			c-2.82,2.12-4.87,3.66-5.7,6.42c-0.87,2.89-15.48,50.06-15.63,50.53l-0.2,0.66h30.97l30.51-28.65l-0.19-0.35
			c-0.07-0.13-1.82-3.19-6.35-4.15c-0.5-0.1-1.02-0.16-1.54-0.16c-4.06,0-7.82,3.15-10.07,5.03c-1.01,0.85-2.33,1.81-3.61,1.81
			c-1.32,0-2.46-1.05-3.48-3.23c-2.58-5.51-3.54-7.77-4.13-9.24c-0.53-1.31-1.16-3.21-0.54-4.56c0.45-0.99,3.86-4.24,5.69-5.99
			c0.62-0.59,1.12-1.06,1.37-1.32c0.96-0.98,6.85-6.81,7.67-7.61l5.95-1.68c1.3-0.37,2.95,0.13,5.58,1.64l0.6,0.35
			c2.22,1.28,4.14,2.39,6.34,2.39c0.35,0,0.7-0.03,1.05-0.08c2.88-0.45,4.41-2.73,4.88-4.72l0.07-0.29L81.23,25.95z"/>
		<path class="st1" d="M132.91,97.55c-0.02-0.08-1.47-8.56-3.03-17.14c-0.65-3.53-1.43-7.93-2.16-12.08
			c-1.06-5.98-2.06-11.62-2.41-13.26c-0.51-2.36-3.79-7.19-6.58-11.12l-0.33-0.46c-0.84-1.19-3.77-5.02-5.91-7.82
			c-1.19-1.55-2.12-2.77-2.28-2.99c-0.47-0.67-1.75-1.74-1.95-1.9L88.97,18.51l-0.28,0.21c-1.9,1.42-3.63,4.23-1.06,9.63
			c2.25,4.71,9.01,9.61,10.04,10.33c4.07,9.62,8.99,17.61,9.64,18.64c0.56,9.07-0.69,15.19-3.81,18.72
			c-1.32,1.48-2.75,2.24-4.26,2.24c-1.55,0-2.92-0.78-3.82-1.37c-0.32-0.21-0.67-0.49-1.09-0.81c-1.78-1.39-4.46-3.48-8.51-3.48
			c-5.05,0-7.45,4.74-7.55,4.94l-0.15,0.31L95.96,98.1l37.06,0.05L132.91,97.55z M96.16,82.83c0.61,0.35,1.47,0.68,2.56,0.68
			c0.84,0,1.7-0.19,2.58-0.59c-0.18,1.13-0.63,2.71-1.53,3.21c-0.4,0.22-0.8,0.34-1.16,0.34C97.43,86.48,96.58,85.19,96.16,82.83z"
			/>
	</g>
	<g>
		<g>
			<path class="st1" d="M32.03,122.83c-2.8,0-5.18-2.28-5.18-6.34c0-3.74,2.18-6.17,5.18-6.17s5.18,2.43,5.18,6.17
				C37.21,120.55,34.83,122.83,32.03,122.83z M31.98,111.29c-2.23,0-3.48,2.12-3.48,4.98c0,3.4,1.56,5.49,3.6,5.49
				c2.12,0,3.49-2.09,3.49-5.05C35.58,113.43,34.13,111.29,31.98,111.29z"/>
			<path class="st1" d="M42.01,122.78c-1.05,0-1.85-0.25-2.28-0.54c-0.44-0.31-0.59-0.58-0.59-1.19v-11.22
				c0-0.17,0.07-0.26,0.24-0.26h0.92c0.17,0,0.24,0.09,0.24,0.26v4.79c0.34-0.32,1.24-1.05,2.52-1.05c1.99,0,3.25,1.7,3.25,4.18
				C46.29,121.23,44.13,122.78,42.01,122.78z M42.53,114.55c-0.9,0-1.63,0.46-2.01,0.83v5.42c0,0.73,0.56,1.09,1.55,1.09
				c1.31,0,2.77-1.17,2.77-3.88C44.84,115.67,43.88,114.55,42.53,114.55z"/>
			<path class="st1" d="M51.39,122.78c-1.87,0-3.67-1.26-3.67-4.64c0-3.18,1.8-4.57,3.69-4.57c2.14,0,3.18,1.7,3.18,3.26
				c0,0.27-0.14,0.34-0.42,0.39l-5.17,0.87c0.05,1.87,0.88,3.52,2.7,3.52c1.17,0,1.9-0.94,2.29-1.7c0.1-0.2,0.19-0.27,0.36-0.27
				c0.19,0,0.29,0.15,0.29,0.31C54.64,120.74,53.65,122.78,51.39,122.78z M53.19,116.62c-0.07-1.16-0.58-2.26-1.92-2.26
				c-1.53,0-2.23,1.48-2.31,2.97L53.19,116.62z"/>
			<path class="st1" d="M60.67,115.21c-0.71,0-0.65-0.83-1.63-0.83c-0.76,0-1.22,0.36-1.22,0.97v6.97c0,0.17-0.08,0.25-0.26,0.25
				h-0.92c-0.17,0-0.24-0.08-0.24-0.25v-7.24c0-0.53,0.19-0.8,0.66-1.04c0.48-0.24,1.38-0.48,2.33-0.48c1.38,0,1.92,0.48,1.92,1.02
				C61.32,114.96,61.1,115.21,60.67,115.21z"/>
			<path class="st1" d="M65.89,122.78c-2.57,0-3.82-2.19-3.82-4.64s1.33-4.57,3.82-4.57c2.5,0,3.84,2.12,3.84,4.57
				S68.46,122.78,65.89,122.78z M65.84,114.38c-1.67,0-2.31,1.77-2.31,3.57c0,1.84,0.68,3.91,2.38,3.91c1.8,0,2.36-1.8,2.36-3.62
				S67.59,114.38,65.84,114.38z"/>
			<path class="st1" d="M78.21,122.32c0,0.17-0.08,0.25-0.25,0.25h-0.92c-0.17,0-0.24-0.08-0.24-0.25v-6.09
				c0-0.94-0.49-1.89-2.11-1.89c-1.63,0-1.75,0.65-1.75,1.21v6.77c0,0.17-0.08,0.25-0.26,0.25h-0.92c-0.17,0-0.24-0.08-0.24-0.25
				v-7.24c0-0.53,0.17-0.8,0.65-1.04c0.51-0.25,1.38-0.48,2.58-0.48c1.5,0,3.45,0.43,3.45,2.6V122.32z"/>
			<path class="st1" d="M89.81,122.83c-3.71,0-5.37-3.09-5.37-6.37c0-3.21,1.85-6.14,5.2-6.14c2.65,0,3.89,1.75,3.89,2.46
				c0,0.48-0.32,0.71-0.71,0.71c-0.37,0-0.58-0.25-0.7-0.53c-0.24-0.54-0.87-1.7-2.55-1.7c-1.99,0-3.48,1.77-3.48,4.95
				c0,3.21,1.61,5.46,3.88,5.46c1.5,0,2.33-0.73,2.84-1.26c0.12-0.12,0.24-0.17,0.37-0.17c0.2,0,0.36,0.14,0.36,0.36
				C93.53,121.23,92.02,122.83,89.81,122.83z"/>
			<path class="st1" d="M95.95,112.05c-0.51,0-0.88-0.36-0.88-0.8s0.37-0.8,0.88-0.8c0.51,0,0.88,0.36,0.88,0.8
				S96.46,112.05,95.95,112.05z M96.66,122.32c0,0.17-0.08,0.25-0.25,0.25h-0.92c-0.17,0-0.25-0.08-0.25-0.25v-8.3
				c0-0.17,0.08-0.25,0.25-0.25h0.92c0.17,0,0.25,0.08,0.25,0.25V122.32z"/>
			<path class="st1" d="M101.39,122.74c-0.73,0-1.99-0.27-1.99-2.31v-5.85h-0.95c-0.17,0-0.24-0.07-0.24-0.24v-0.32
				c0-0.17,0.07-0.25,0.24-0.25h0.95v-1.39c0-0.17,0.02-0.27,0.17-0.36l0.88-0.53c0.07-0.03,0.1-0.05,0.15-0.05
				c0.14,0,0.2,0.07,0.2,0.24v2.09h1.5c0.17,0,0.24,0.08,0.24,0.25v0.32c0,0.17-0.07,0.24-0.24,0.24h-1.5v5.86
				c0,1.24,0.61,1.48,1.11,1.48c0.2,0,0.29-0.05,0.44-0.05c0.24,0,0.34,0.12,0.34,0.29C102.7,122.49,102.15,122.74,101.39,122.74z"
				/>
			<path class="st1" d="M104.96,112.05c-0.51,0-0.88-0.36-0.88-0.8s0.37-0.8,0.88-0.8s0.88,0.36,0.88,0.8
				S105.47,112.05,104.96,112.05z M105.67,122.32c0,0.17-0.08,0.25-0.25,0.25h-0.92c-0.17,0-0.25-0.08-0.25-0.25v-8.3
				c0-0.17,0.08-0.25,0.25-0.25h0.92c0.17,0,0.25,0.08,0.25,0.25V122.32z"/>
			<path class="st1" d="M112.64,122.57h-5.18c-0.17,0-0.25-0.08-0.25-0.24c0-0.08,0.03-0.15,0.08-0.26l3.88-7.5h-3.45
				c-0.17,0-0.25-0.07-0.25-0.24v-0.32c0-0.17,0.08-0.25,0.25-0.25h4.91c0.17,0,0.27,0.08,0.27,0.24c0,0.08-0.05,0.19-0.12,0.32
				l-3.79,7.39h3.65c0.17,0,0.25,0.08,0.25,0.26v0.34C112.89,122.49,112.81,122.57,112.64,122.57z"/>
			<path class="st1" d="M117.57,122.78c-1.87,0-3.67-1.26-3.67-4.64c0-3.18,1.8-4.57,3.69-4.57c2.14,0,3.18,1.7,3.18,3.26
				c0,0.27-0.14,0.34-0.42,0.39l-5.17,0.87c0.05,1.87,0.88,3.52,2.7,3.52c1.17,0,1.9-0.94,2.29-1.7c0.1-0.2,0.19-0.27,0.36-0.27
				c0.19,0,0.29,0.15,0.29,0.31C120.82,120.74,119.83,122.78,117.57,122.78z M119.37,116.62c-0.07-1.16-0.58-2.26-1.92-2.26
				c-1.53,0-2.23,1.48-2.31,2.97L119.37,116.62z"/>
			<path class="st1" d="M129.26,122.32c0,0.17-0.08,0.25-0.25,0.25h-0.92c-0.17,0-0.24-0.08-0.24-0.25v-6.09
				c0-0.94-0.49-1.89-2.11-1.89c-1.63,0-1.75,0.65-1.75,1.21v6.77c0,0.17-0.08,0.25-0.26,0.25h-0.92c-0.17,0-0.24-0.08-0.24-0.25
				v-7.24c0-0.53,0.17-0.8,0.65-1.04c0.51-0.25,1.38-0.48,2.58-0.48c1.5,0,3.45,0.43,3.45,2.6V122.32z"/>
			<path class="st1" d="M23.04,139.83c-2.38,0-3.77-1.94-3.77-2.77c0-0.49,0.31-0.77,0.75-0.77c0.39,0,0.61,0.19,0.78,0.65
				c0.27,0.73,0.95,1.85,2.29,1.85c1.41,0,2.18-0.95,2.18-2.09c0-3.26-5.71-2.4-5.71-6.24c0-1.97,1.55-3.15,3.57-3.15
				c2.29,0,3.38,1.63,3.38,2.31c0,0.49-0.31,0.71-0.7,0.71c-0.36,0-0.59-0.24-0.71-0.53c-0.29-0.68-0.82-1.56-2.02-1.56
				c-1.24,0-2.06,0.78-2.06,2.06c0,2.87,5.78,2.01,5.78,6.24C26.8,138.4,25.39,139.83,23.04,139.83z"/>
			<path class="st1" d="M31.87,139.78c-1.82,0-3.62-1.27-3.62-4.61c0-3.11,1.7-4.61,3.67-4.61c2.09,0,2.97,1.55,2.97,2.19
				c0,0.46-0.27,0.71-0.68,0.71c-0.34,0-0.53-0.19-0.65-0.56c-0.15-0.48-0.56-1.55-1.77-1.55c-1.19,0-2.26,1.16-2.26,3.43
				c0,2.02,0.85,3.77,2.67,3.77c1.17,0,1.73-0.92,2.09-1.68c0.07-0.15,0.19-0.27,0.37-0.27c0.19,0,0.29,0.15,0.29,0.31
				C34.96,137.72,34.04,139.78,31.87,139.78z"/>
			<path class="st1" d="M37.32,129.05c-0.51,0-0.88-0.36-0.88-0.8s0.37-0.8,0.88-0.8c0.51,0,0.88,0.36,0.88,0.8
				S37.83,129.05,37.32,129.05z M38.04,139.32c0,0.17-0.08,0.25-0.25,0.25h-0.92c-0.17,0-0.25-0.08-0.25-0.25v-8.3
				c0-0.17,0.08-0.25,0.25-0.25h0.92c0.17,0,0.25,0.08,0.25,0.25V139.32z"/>
			<path class="st1" d="M43.6,139.78c-1.87,0-3.67-1.26-3.67-4.64c0-3.18,1.8-4.57,3.69-4.57c2.14,0,3.18,1.7,3.18,3.26
				c0,0.27-0.14,0.34-0.42,0.39l-5.17,0.87c0.05,1.87,0.88,3.52,2.7,3.52c1.17,0,1.9-0.94,2.29-1.7c0.1-0.2,0.19-0.27,0.36-0.27
				c0.19,0,0.29,0.15,0.29,0.31C46.84,137.74,45.86,139.78,43.6,139.78z M45.4,133.62c-0.07-1.16-0.58-2.26-1.92-2.26
				c-1.53,0-2.23,1.48-2.31,2.97L45.4,133.62z"/>
			<path class="st1" d="M55.29,139.32c0,0.17-0.08,0.25-0.25,0.25h-0.92c-0.17,0-0.24-0.08-0.24-0.25v-6.09
				c0-0.94-0.49-1.89-2.11-1.89c-1.63,0-1.75,0.65-1.75,1.21v6.77c0,0.17-0.08,0.25-0.25,0.25h-0.92c-0.17,0-0.24-0.08-0.24-0.25
				v-7.24c0-0.53,0.17-0.8,0.65-1.04c0.51-0.25,1.38-0.48,2.58-0.48c1.5,0,3.45,0.43,3.45,2.6V139.32z"/>
			<path class="st1" d="M60.7,139.78c-1.82,0-3.62-1.27-3.62-4.61c0-3.11,1.7-4.61,3.67-4.61c2.09,0,2.97,1.55,2.97,2.19
				c0,0.46-0.27,0.71-0.68,0.71c-0.34,0-0.53-0.19-0.65-0.56c-0.15-0.48-0.56-1.55-1.77-1.55c-1.19,0-2.26,1.16-2.26,3.43
				c0,2.02,0.85,3.77,2.67,3.77c1.17,0,1.73-0.92,2.09-1.68c0.07-0.15,0.19-0.27,0.37-0.27c0.19,0,0.29,0.15,0.29,0.31
				C63.79,137.72,62.87,139.78,60.7,139.78z"/>
			<path class="st1" d="M68.65,139.78c-1.87,0-3.67-1.26-3.67-4.64c0-3.18,1.8-4.57,3.69-4.57c2.14,0,3.18,1.7,3.18,3.26
				c0,0.27-0.14,0.34-0.42,0.39l-5.17,0.87c0.05,1.87,0.88,3.52,2.7,3.52c1.17,0,1.9-0.94,2.29-1.7c0.1-0.2,0.19-0.27,0.36-0.27
				c0.19,0,0.29,0.15,0.29,0.31C71.9,137.74,70.91,139.78,68.65,139.78z M70.46,133.62c-0.07-1.16-0.58-2.26-1.92-2.26
				c-1.53,0-2.23,1.48-2.31,2.97L70.46,133.62z"/>
			<path class="st1" d="M87.28,139.57h-0.94c-0.2,0-0.25-0.07-0.37-0.24l-5.75-8.58c-0.48-0.71-0.85-1.58-0.97-1.85h-0.03
				c0.07,0.63,0.12,1.33,0.12,2.01v8.41c0,0.17-0.08,0.25-0.25,0.25h-0.75c-0.17,0-0.25-0.08-0.25-0.25v-11.49
				c0-0.17,0.08-0.26,0.25-0.26h1.21c0.17,0,0.25,0.08,0.36,0.24l5.46,8.14c0.42,0.63,0.71,1.26,1,1.9h0.03
				c-0.03-0.34-0.12-1.22-0.12-2.14v-7.89c0-0.17,0.07-0.26,0.24-0.26h0.77c0.17,0,0.24,0.08,0.24,0.26v11.49
				C87.52,139.49,87.45,139.57,87.28,139.57z"/>
			<path class="st1" d="M93.1,139.78c-1.87,0-3.67-1.26-3.67-4.64c0-3.18,1.8-4.57,3.69-4.57c2.14,0,3.18,1.7,3.18,3.26
				c0,0.27-0.14,0.34-0.42,0.39l-5.17,0.87c0.05,1.87,0.88,3.52,2.7,3.52c1.17,0,1.9-0.94,2.29-1.7c0.1-0.2,0.19-0.27,0.36-0.27
				c0.19,0,0.29,0.15,0.29,0.31C96.34,137.74,95.36,139.78,93.1,139.78z M94.9,133.62c-0.07-1.16-0.58-2.26-1.92-2.26
				c-1.53,0-2.23,1.48-2.31,2.97L94.9,133.62z"/>
			<path class="st1" d="M100.58,139.74c-0.73,0-1.99-0.27-1.99-2.31v-5.85h-0.95c-0.17,0-0.24-0.07-0.24-0.24v-0.32
				c0-0.17,0.07-0.25,0.24-0.25h0.95v-1.39c0-0.17,0.02-0.27,0.17-0.36l0.88-0.53c0.07-0.03,0.1-0.05,0.15-0.05
				c0.14,0,0.2,0.07,0.2,0.24v2.09h1.5c0.17,0,0.24,0.08,0.24,0.25v0.32c0,0.17-0.07,0.24-0.24,0.24H100v5.86
				c0,1.24,0.61,1.48,1.11,1.48c0.2,0,0.29-0.05,0.44-0.05c0.24,0,0.34,0.12,0.34,0.29C101.89,139.49,101.34,139.74,100.58,139.74z"
				/>
			<path class="st1" d="M114.06,131.23l-2.36,8.09c-0.05,0.15-0.12,0.25-0.32,0.25h-0.7c-0.19,0-0.27-0.08-0.32-0.25l-1.61-5.32
				c-0.17-0.58-0.29-1.27-0.34-1.63h-0.03c-0.12,0.75-0.2,1.17-0.34,1.63l-1.62,5.32c-0.05,0.17-0.12,0.25-0.32,0.25h-0.7
				c-0.2,0-0.27-0.08-0.32-0.25l-2.36-8.09c-0.03-0.1-0.05-0.17-0.05-0.22c0-0.17,0.1-0.24,0.25-0.24h0.88
				c0.15,0,0.25,0.07,0.31,0.24l1.44,5.63c0.14,0.51,0.24,1.17,0.29,1.6h0.03c0.03-0.22,0.2-1.05,0.36-1.6l1.65-5.61
				c0.05-0.17,0.14-0.25,0.32-0.25h0.59c0.2,0,0.27,0.1,0.32,0.25l1.63,5.61c0.19,0.63,0.29,1.36,0.32,1.6h0.03
				c0.03-0.24,0.17-1,0.32-1.6l1.44-5.63c0.05-0.17,0.17-0.24,0.32-0.24h0.66c0.15,0,0.25,0.07,0.25,0.24
				C114.11,131.07,114.09,131.11,114.06,131.23z"/>
			<path class="st1" d="M119.04,139.78c-2.57,0-3.83-2.19-3.83-4.64s1.33-4.57,3.83-4.57s3.84,2.12,3.84,4.57
				S121.61,139.78,119.04,139.78z M118.99,131.38c-1.67,0-2.31,1.77-2.31,3.57c0,1.84,0.68,3.91,2.38,3.91c1.8,0,2.36-1.8,2.36-3.62
				S120.74,131.38,118.99,131.38z"/>
			<path class="st1" d="M128.95,132.21c-0.71,0-0.65-0.83-1.63-0.83c-0.76,0-1.22,0.36-1.22,0.97v6.97c0,0.17-0.08,0.25-0.25,0.25
				h-0.92c-0.17,0-0.24-0.08-0.24-0.25v-7.24c0-0.53,0.19-0.8,0.66-1.04c0.48-0.24,1.38-0.48,2.33-0.48c1.38,0,1.92,0.48,1.92,1.02
				C129.6,131.96,129.37,132.21,128.95,132.21z"/>
			<path class="st1" d="M137.2,139.57h-1.04c-0.19,0-0.27-0.08-0.37-0.2l-3.09-3.72c-0.24-0.29-0.37-0.51-0.49-0.68h-0.03v4.35
				c0,0.17-0.08,0.25-0.25,0.25h-0.88c-0.17,0-0.24-0.08-0.24-0.25v-12.49c0-0.17,0.07-0.26,0.24-0.26h0.88
				c0.17,0,0.25,0.09,0.25,0.26v7.89h0.03l3.48-3.76c0.1-0.12,0.17-0.19,0.36-0.19h0.85c0.19,0,0.24,0.08,0.24,0.2
				c0,0.08-0.03,0.14-0.12,0.24l-3.49,3.54l3.84,4.39c0.05,0.07,0.08,0.12,0.08,0.2C137.45,139.49,137.37,139.57,137.2,139.57z"/>
		</g>
	</g>
	<g>
		<path class="st1" d="M30.63,168.69H20.32c-0.42,0-0.63-0.21-0.63-0.63v-20.03c0-0.42,0.21-0.63,0.63-0.63h3.56
			c0.42,0,0.6,0.21,0.6,0.63v17.5h6.15c0.42,0,0.6,0.21,0.6,0.63v1.9C31.24,168.48,31.05,168.69,30.63,168.69z"/>
		<path class="st1" d="M44.51,168.12c-0.75,0.48-2.9,0.97-4.92,0.97c-3.53,0-6.91-1.09-6.91-4.31c0-4.13,5.01-5.1,8.75-5.79v-1.99
			c0-1.3-0.78-2.05-1.87-2.05c-1.42,0-2.02,1.03-2.32,1.9c-0.33,1-1,1.39-1.96,1.39c-1.06,0-1.93-0.63-1.93-1.75
			c0-1.48,1.9-3.8,6.82-3.8c3.08,0,5.52,1.51,5.52,4.74v8.24C45.69,166.94,45.42,167.55,44.51,168.12z M41.43,160.88
			c-2.32,0.45-4.52,1.15-4.52,3.53c0,1.36,0.94,2.38,2.56,2.38c1,0,1.96-0.36,1.96-1.48V160.88z"/>
		<path class="st1" d="M61.77,168.69h-3.23c-0.42,0-0.6-0.21-0.6-0.63V157.5c0-1.3-0.6-2.47-2.53-2.47c-1.96,0-2.23,0.91-2.23,1.84
			v11.19c0,0.42-0.21,0.63-0.63,0.63h-3.2c-0.42,0-0.6-0.21-0.6-0.63v-12.55c0-1.06,0.27-1.48,1.24-1.93
			c1.09-0.51,3.23-0.91,5.55-0.91c3.77,0,6.85,1.24,6.85,4.62v10.77C62.37,168.48,62.19,168.69,61.77,168.69z"/>
		<path class="st1" d="M77.82,168.03c-0.81,0.54-2.99,1.06-5.04,1.06c-5.76,0-7.96-3.41-7.96-7.81c0-4.46,2.38-8.57,7-8.57
			c1.42,0,2.38,0.48,2.78,0.72v-7.18c0-0.42,0.18-0.63,0.6-0.63h3.17c0.42,0,0.63,0.21,0.63,0.63v19.49
			C79,166.88,78.7,167.45,77.82,168.03z M74.6,155.57c-0.39-0.27-0.94-0.57-1.87-0.57c-2.05,0-3.44,2.14-3.44,5.76
			c0,3.77,1.72,5.7,3.5,5.7c1.21,0,1.81-0.48,1.81-1.36V155.57z"/>
		<path class="st1" d="M88.45,169.08c-3.77,0-7-2.62-7-8.18c0-5.16,2.72-8.24,7.15-8.24c3.98,0,5.85,2.44,5.85,3.95
			c0,1.15-0.63,1.9-1.9,1.9c-1.03,0-1.57-0.54-1.96-1.6c-0.24-0.63-0.72-1.9-2.23-1.9c-1.51,0-2.8,1.63-2.8,4.68
			c0,3.08,1.24,5.82,3.98,5.82c1.69,0,2.47-1.12,3.08-2.05c0.24-0.36,0.57-0.57,1-0.57c0.54,0,0.91,0.42,0.91,1
			C94.51,166.19,92.13,169.08,88.45,169.08z"/>
		<path class="st1" d="M107.79,168.12c-0.75,0.48-2.9,0.97-4.92,0.97c-3.53,0-6.91-1.09-6.91-4.31c0-4.13,5.01-5.1,8.75-5.79v-1.99
			c0-1.3-0.78-2.05-1.87-2.05c-1.42,0-2.02,1.03-2.32,1.9c-0.33,1-1,1.39-1.96,1.39c-1.06,0-1.93-0.63-1.93-1.75
			c0-1.48,1.9-3.8,6.82-3.8c3.08,0,5.52,1.51,5.52,4.74v8.24C108.96,166.94,108.69,167.55,107.79,168.12z M104.71,160.88
			c-2.32,0.45-4.52,1.15-4.52,3.53c0,1.36,0.94,2.38,2.56,2.38c1,0,1.96-0.36,1.96-1.48V160.88z"/>
		<path class="st1" d="M121.15,157.14c-1.99,0-1.48-2.08-3.17-2.08c-0.94,0-1.54,0.48-1.54,1.3v11.7c0,0.42-0.21,0.63-0.63,0.63
			h-3.2c-0.42,0-0.6-0.21-0.6-0.63v-12.55c0-1.06,0.3-1.48,1.27-1.93c1-0.45,2.96-0.91,5.13-0.91c3.2,0,4.5,1.12,4.5,2.56
			C122.9,156.38,122.3,157.14,121.15,157.14z"/>
		<path class="st1" d="M131.08,169.08c-4.04,0-7.3-2.47-7.3-8.33c0-5.61,3.41-8.08,7.27-8.08c3.77,0,6.21,2.81,6.21,6.12
			c0,0.88-0.36,1.12-1.12,1.24l-8.3,1.36c0.27,2.32,1.54,4.25,4.1,4.25c1.75,0,2.96-1.21,3.56-2.08c0.21-0.3,0.51-0.54,0.94-0.54
			c0.48,0,0.88,0.42,0.88,0.96C137.33,166.22,134.79,169.08,131.08,169.08z M130.57,155.03c-2.11,0-2.93,2.2-2.99,4.22l5.55-0.93
			C133.07,156.69,132.44,155.03,130.57,155.03z"/>
	</g>
</g>
<g id="Colour_Stacked_Reverse">
</g>
<g id="Colour_Inline_Positive">
</g>
<g id="Colour_Inline_Reverse">
</g>
<g id="Monochrome_Stacked_Positive">
</g>
<g id="Monochrome_Stacked_Reverse">
</g>
<g id="Monochrome_Inline_Positive">
</g>
<g id="Monochrome_Inline_Reverse">
</g>
</svg>
