<?xml version="1.0" encoding="utf-8"?>
<!-- Generator: Adobe Illustrator 27.8.1, SVG Export Plug-In . SVG Version: 6.00 Build 0)  -->
<svg version="1.1" xmlns="http://www.w3.org/2000/svg" xmlns:xlink="http://www.w3.org/1999/xlink" x="0px" y="0px"
	 viewBox="0 0 303.28 123.27" style="enable-background:new 0 0 303.28 123.27;" xml:space="preserve">
<style type="text/css">
	.Arched_x0020_Green{fill:url(#SVGID_1_);stroke:#FFFFFF;stroke-width:0.25;stroke-miterlimit:1;}
	.st0{fill:#75A237;}
	.st1{fill:#FFFFFF;}
</style>
<linearGradient id="SVGID_1_" gradientUnits="userSpaceOnUse" x1="-1125.4921" y1="-188.3964" x2="-1124.7849" y2="-189.1035">
	<stop  offset="0" style="stop-color:#20AC4B"/>
	<stop  offset="0.9831" style="stop-color:#19361A"/>
</linearGradient>
<g id="_x2D__Titles">
</g>
<g id="Colour_Stacked_Positive">
</g>
<g id="Colour_Stacked_Reverse">
</g>
<g id="Colour_Inline_Positive">
	<polygon points="303.35,95.02 275.32,123.05 0.14,123.05 0.14,0.18 303.35,0.18 	"/>
	<g>
		<g>
			<path class="st1" d="M84.87,28.42H67.38l-0.13,0.1c0,0-14.57,11.05-17.97,13.63c-0.36,0.28-0.72,0.54-1.05,0.8
				c-2.82,2.12-4.86,3.65-5.69,6.41c-0.86,2.89-15.46,49.98-15.6,50.45l-0.2,0.65h30.92l30.47-28.6l-0.19-0.34
				c-0.07-0.13-1.81-3.18-6.34-4.14c-0.5-0.1-1.01-0.16-1.53-0.16c-4.06,0-7.81,3.14-10.05,5.02c-1.01,0.84-2.33,1.81-3.6,1.81
				c-1.32,0-2.45-1.05-3.47-3.22c-2.58-5.5-3.53-7.75-4.13-9.23c-0.53-1.31-1.16-3.21-0.54-4.56c0.45-0.99,3.85-4.23,5.68-5.97
				c0.62-0.59,1.12-1.06,1.36-1.32c0.96-0.98,6.84-6.8,7.66-7.6l5.94-1.67c1.3-0.37,2.95,0.13,5.57,1.64l0.6,0.35
				c2.22,1.28,4.13,2.39,6.33,2.39c0.35,0,0.7-0.03,1.05-0.09c2.87-0.45,4.4-2.73,4.87-4.71l0.07-0.29L84.87,28.42z"/>
			<path class="st1" d="M136.48,99.91c-0.01-0.08-1.46-8.54-3.02-17.12c-0.64-3.53-1.42-7.91-2.15-12.06
				c-1.06-5.97-2.06-11.6-2.41-13.25c-0.51-2.36-3.78-7.17-6.57-11.1l-0.33-0.46c-0.84-1.19-3.77-5.02-5.9-7.81
				c-1.18-1.54-2.12-2.77-2.27-2.99c-0.47-0.66-1.75-1.74-1.95-1.9L92.6,21l-0.28,0.21c-1.9,1.41-3.62,4.23-1.06,9.61
				c2.24,4.7,9,9.59,10.02,10.32c4.07,9.6,8.98,17.58,9.62,18.61c0.56,9.05-0.69,15.17-3.81,18.69c-1.31,1.48-2.74,2.23-4.25,2.23
				c-1.54,0-2.91-0.78-3.81-1.38c-0.31-0.2-0.67-0.48-1.08-0.8c-1.78-1.39-4.46-3.48-8.5-3.48c-5.04,0-7.44,4.73-7.54,4.93
				l-0.15,0.3l17.8,20.2l37,0.05L136.48,99.91z M99.78,85.21c0.61,0.35,1.47,0.68,2.55,0.68c0.84,0,1.7-0.19,2.57-0.58
				c-0.18,1.13-0.62,2.7-1.52,3.2c-0.4,0.22-0.8,0.34-1.15,0.34C101.06,88.85,100.2,87.57,99.78,85.21z"/>
		</g>
	</g>
	<g>
		<g>
			<path class="st1" d="M155.16,38.11c-2.97,0-5.49-2.41-5.49-6.72c0-3.96,2.3-6.54,5.49-6.54c3.19,0,5.49,2.57,5.49,6.54
				C160.65,35.7,158.13,38.11,155.16,38.11z M155.11,25.89c-2.36,0-3.69,2.25-3.69,5.28c0,3.6,1.66,5.82,3.82,5.82
				c2.25,0,3.69-2.21,3.69-5.35C158.92,28.16,157.39,25.89,155.11,25.89z"/>
			<path class="st1" d="M165.73,38.06c-1.12,0-1.96-0.27-2.41-0.58c-0.47-0.32-0.63-0.61-0.63-1.26V24.34
				c0-0.18,0.07-0.27,0.25-0.27h0.97c0.18,0,0.25,0.09,0.25,0.27v5.08c0.36-0.34,1.31-1.12,2.67-1.12c2.11,0,3.44,1.8,3.44,4.43
				C170.26,36.42,167.98,38.06,165.73,38.06z M166.28,29.35c-0.95,0-1.73,0.49-2.12,0.88v5.74c0,0.77,0.59,1.15,1.64,1.15
				c1.39,0,2.93-1.24,2.93-4.11C168.73,30.53,167.71,29.35,166.28,29.35z"/>
			<path class="st1" d="M175.66,38.06c-1.98,0-3.89-1.33-3.89-4.92c0-3.37,1.91-4.84,3.91-4.84c2.27,0,3.37,1.8,3.37,3.46
				c0,0.29-0.14,0.36-0.45,0.41l-5.47,0.92c0.05,1.98,0.94,3.73,2.86,3.73c1.24,0,2.02-0.99,2.43-1.8c0.11-0.22,0.2-0.29,0.38-0.29
				c0.2,0,0.31,0.16,0.31,0.32C179.1,35.9,178.06,38.06,175.66,38.06z M177.57,31.54c-0.07-1.22-0.61-2.4-2.04-2.4
				c-1.62,0-2.36,1.57-2.45,3.15L177.57,31.54z"/>
			<path class="st1" d="M185.49,30.05c-0.76,0-0.68-0.88-1.73-0.88c-0.81,0-1.3,0.38-1.3,1.03v7.38c0,0.18-0.09,0.27-0.27,0.27
				h-0.97c-0.18,0-0.25-0.09-0.25-0.27V29.9c0-0.56,0.2-0.85,0.7-1.1c0.5-0.25,1.46-0.5,2.47-0.5c1.46,0,2.04,0.5,2.04,1.08
				C186.17,29.78,185.94,30.05,185.49,30.05z"/>
			<path class="st1" d="M191.02,38.06c-2.72,0-4.05-2.32-4.05-4.92s1.4-4.84,4.05-4.84c2.65,0,4.07,2.25,4.07,4.84
				S193.73,38.06,191.02,38.06z M190.96,29.17c-1.76,0-2.45,1.87-2.45,3.78c0,1.94,0.72,4.14,2.52,4.14c1.91,0,2.5-1.91,2.5-3.83
				S192.82,29.17,190.96,29.17z"/>
			<path class="st1" d="M204.07,37.57c0,0.18-0.09,0.27-0.27,0.27h-0.97c-0.18,0-0.25-0.09-0.25-0.27v-6.45c0-0.99-0.52-2-2.23-2
				c-1.73,0-1.85,0.68-1.85,1.28v7.17c0,0.18-0.09,0.27-0.27,0.27h-0.97c-0.18,0-0.25-0.09-0.25-0.27V29.9
				c0-0.56,0.18-0.85,0.68-1.1c0.54-0.27,1.46-0.5,2.74-0.5c1.58,0,3.66,0.45,3.66,2.75V37.57z"/>
			<path class="st1" d="M216.34,38.11c-3.92,0-5.69-3.28-5.69-6.75c0-3.4,1.96-6.5,5.51-6.5c2.81,0,4.12,1.85,4.12,2.61
				c0,0.5-0.34,0.76-0.76,0.76c-0.4,0-0.61-0.27-0.74-0.56c-0.25-0.58-0.92-1.8-2.7-1.8c-2.11,0-3.69,1.87-3.69,5.24
				c0,3.4,1.71,5.78,4.11,5.78c1.58,0,2.47-0.77,3.01-1.33c0.13-0.13,0.25-0.18,0.4-0.18c0.22,0,0.38,0.14,0.38,0.38
				C220.29,36.42,218.68,38.11,216.34,38.11z"/>
			<path class="st1" d="M222.84,26.7c-0.54,0-0.94-0.38-0.94-0.85c0-0.47,0.4-0.85,0.94-0.85s0.94,0.38,0.94,0.85
				C223.77,26.32,223.38,26.7,222.84,26.7z M223.59,37.57c0,0.18-0.09,0.27-0.27,0.27h-0.97c-0.18,0-0.27-0.09-0.27-0.27v-8.79
				c0-0.18,0.09-0.27,0.27-0.27h0.97c0.18,0,0.27,0.09,0.27,0.27V37.57z"/>
			<path class="st1" d="M228.6,38.02c-0.77,0-2.11-0.29-2.11-2.45v-6.19h-1.01c-0.18,0-0.25-0.07-0.25-0.25v-0.34
				c0-0.18,0.07-0.27,0.25-0.27h1.01v-1.48c0-0.18,0.02-0.29,0.18-0.38l0.94-0.56c0.07-0.04,0.11-0.05,0.16-0.05
				c0.14,0,0.22,0.07,0.22,0.25v2.21h1.58c0.18,0,0.25,0.09,0.25,0.27v0.34c0,0.18-0.07,0.25-0.25,0.25h-1.58v6.21
				c0,1.31,0.65,1.57,1.17,1.57c0.22,0,0.31-0.05,0.47-0.05c0.25,0,0.36,0.13,0.36,0.31C229.99,37.75,229.41,38.02,228.6,38.02z"/>
			<path class="st1" d="M232.38,26.7c-0.54,0-0.94-0.38-0.94-0.85c0-0.47,0.4-0.85,0.94-0.85s0.94,0.38,0.94,0.85
				C233.31,26.32,232.92,26.7,232.38,26.7z M233.13,37.57c0,0.18-0.09,0.27-0.27,0.27h-0.97c-0.18,0-0.27-0.09-0.27-0.27v-8.79
				c0-0.18,0.09-0.27,0.27-0.27h0.97c0.18,0,0.27,0.09,0.27,0.27V37.57z"/>
			<path class="st1" d="M240.52,37.84h-5.49c-0.18,0-0.27-0.09-0.27-0.25c0-0.09,0.04-0.16,0.09-0.27l4.1-7.94h-3.65
				c-0.18,0-0.27-0.07-0.27-0.25v-0.34c0-0.18,0.09-0.27,0.27-0.27h5.2c0.18,0,0.29,0.09,0.29,0.25c0,0.09-0.05,0.2-0.13,0.34
				l-4.02,7.83h3.87c0.18,0,0.27,0.09,0.27,0.27v0.36C240.79,37.75,240.7,37.84,240.52,37.84z"/>
			<path class="st1" d="M245.73,38.06c-1.98,0-3.89-1.33-3.89-4.92c0-3.37,1.91-4.84,3.91-4.84c2.27,0,3.37,1.8,3.37,3.46
				c0,0.29-0.14,0.36-0.45,0.41l-5.47,0.92c0.05,1.98,0.94,3.73,2.86,3.73c1.24,0,2.02-0.99,2.43-1.8c0.11-0.22,0.2-0.29,0.38-0.29
				c0.2,0,0.31,0.16,0.31,0.32C249.17,35.9,248.13,38.06,245.73,38.06z M247.64,31.54c-0.07-1.22-0.61-2.4-2.04-2.4
				c-1.62,0-2.36,1.57-2.45,3.15L247.64,31.54z"/>
			<path class="st1" d="M258.12,37.57c0,0.18-0.09,0.27-0.27,0.27h-0.97c-0.18,0-0.25-0.09-0.25-0.27v-6.45c0-0.99-0.52-2-2.23-2
				c-1.73,0-1.85,0.68-1.85,1.28v7.17c0,0.18-0.09,0.27-0.27,0.27h-0.97c-0.18,0-0.25-0.09-0.25-0.27V29.9
				c0-0.56,0.18-0.85,0.68-1.1c0.54-0.27,1.46-0.5,2.74-0.5c1.58,0,3.66,0.45,3.66,2.75V37.57z"/>
			<path class="st1" d="M153.49,57.11c-2.52,0-4-2.05-4-2.93c0-0.52,0.32-0.81,0.79-0.81c0.41,0,0.65,0.2,0.83,0.68
				c0.29,0.77,1.01,1.96,2.43,1.96c1.49,0,2.3-1.01,2.3-2.21c0-3.46-6.05-2.54-6.05-6.61c0-2.09,1.64-3.33,3.78-3.33
				c2.43,0,3.58,1.73,3.58,2.45c0,0.52-0.32,0.76-0.74,0.76c-0.38,0-0.63-0.25-0.76-0.56c-0.31-0.72-0.87-1.66-2.14-1.66
				c-1.31,0-2.18,0.83-2.18,2.18c0,3.04,6.12,2.12,6.12,6.61C157.46,55.6,155.97,57.11,153.49,57.11z"/>
			<path class="st1" d="M162.83,57.06c-1.93,0-3.83-1.35-3.83-4.88c0-3.29,1.8-4.88,3.89-4.88c2.21,0,3.15,1.64,3.15,2.32
				c0,0.49-0.29,0.76-0.72,0.76c-0.36,0-0.56-0.2-0.68-0.59c-0.16-0.5-0.59-1.64-1.87-1.64c-1.26,0-2.39,1.22-2.39,3.64
				c0,2.14,0.9,4,2.83,4c1.24,0,1.84-0.97,2.21-1.78c0.07-0.16,0.2-0.29,0.4-0.29s0.31,0.16,0.31,0.32
				C166.11,54.88,165.13,57.06,162.83,57.06z"/>
			<path class="st1" d="M168.6,45.7c-0.54,0-0.94-0.38-0.94-0.85c0-0.47,0.4-0.85,0.94-0.85s0.94,0.38,0.94,0.85
				C169.54,45.32,169.14,45.7,168.6,45.7z M169.36,56.57c0,0.18-0.09,0.27-0.27,0.27h-0.97c-0.18,0-0.27-0.09-0.27-0.27v-8.79
				c0-0.18,0.09-0.27,0.27-0.27h0.97c0.18,0,0.27,0.09,0.27,0.27V56.57z"/>
			<path class="st1" d="M175.25,57.06c-1.98,0-3.89-1.33-3.89-4.92c0-3.37,1.91-4.84,3.91-4.84c2.27,0,3.37,1.8,3.37,3.46
				c0,0.29-0.14,0.36-0.45,0.41l-5.47,0.92c0.05,1.98,0.94,3.73,2.86,3.73c1.24,0,2.02-0.99,2.43-1.8c0.11-0.22,0.2-0.29,0.38-0.29
				c0.2,0,0.31,0.16,0.31,0.32C178.69,54.9,177.64,57.06,175.25,57.06z M177.16,50.54c-0.07-1.22-0.61-2.4-2.04-2.4
				c-1.62,0-2.36,1.57-2.45,3.15L177.16,50.54z"/>
			<path class="st1" d="M187.63,56.57c0,0.18-0.09,0.27-0.27,0.27h-0.97c-0.18,0-0.25-0.09-0.25-0.27v-6.45c0-0.99-0.52-2-2.23-2
				c-1.73,0-1.85,0.68-1.85,1.28v7.17c0,0.18-0.09,0.27-0.27,0.27h-0.97c-0.18,0-0.25-0.09-0.25-0.27V48.9
				c0-0.56,0.18-0.85,0.68-1.1c0.54-0.27,1.46-0.5,2.74-0.5c1.58,0,3.65,0.45,3.65,2.75V56.57z"/>
			<path class="st1" d="M193.36,57.06c-1.93,0-3.83-1.35-3.83-4.88c0-3.29,1.8-4.88,3.89-4.88c2.21,0,3.15,1.64,3.15,2.32
				c0,0.49-0.29,0.76-0.72,0.76c-0.36,0-0.56-0.2-0.68-0.59c-0.16-0.5-0.59-1.64-1.87-1.64c-1.26,0-2.39,1.22-2.39,3.64
				c0,2.14,0.9,4,2.83,4c1.24,0,1.84-0.97,2.21-1.78c0.07-0.16,0.2-0.29,0.4-0.29s0.31,0.16,0.31,0.32
				C196.63,54.88,195.66,57.06,193.36,57.06z"/>
			<path class="st1" d="M201.78,57.06c-1.98,0-3.89-1.33-3.89-4.92c0-3.37,1.91-4.84,3.91-4.84c2.27,0,3.37,1.8,3.37,3.46
				c0,0.29-0.14,0.36-0.45,0.41l-5.47,0.92c0.05,1.98,0.94,3.73,2.86,3.73c1.24,0,2.02-0.99,2.43-1.8c0.11-0.22,0.2-0.29,0.38-0.29
				c0.2,0,0.31,0.16,0.31,0.32C205.22,54.9,204.17,57.06,201.78,57.06z M203.69,50.54c-0.07-1.22-0.61-2.4-2.04-2.4
				c-1.62,0-2.36,1.57-2.45,3.15L203.69,50.54z"/>
			<path class="st1" d="M221.51,56.84h-0.99c-0.22,0-0.27-0.07-0.4-0.25l-6.09-9.09c-0.5-0.76-0.9-1.67-1.03-1.96h-0.04
				c0.07,0.67,0.13,1.4,0.13,2.12v8.91c0,0.18-0.09,0.27-0.27,0.27h-0.79c-0.18,0-0.27-0.09-0.27-0.27V44.4
				c0-0.18,0.09-0.27,0.27-0.27h1.28c0.18,0,0.27,0.09,0.38,0.25l5.78,8.62c0.45,0.67,0.76,1.33,1.06,2.02h0.04
				c-0.04-0.36-0.13-1.3-0.13-2.27V44.4c0-0.18,0.07-0.27,0.25-0.27h0.81c0.18,0,0.25,0.09,0.25,0.27v12.17
				C221.76,56.75,221.69,56.84,221.51,56.84z"/>
			<path class="st1" d="M227.66,57.06c-1.98,0-3.89-1.33-3.89-4.92c0-3.37,1.91-4.84,3.91-4.84c2.27,0,3.37,1.8,3.37,3.46
				c0,0.29-0.14,0.36-0.45,0.41l-5.47,0.92c0.05,1.98,0.94,3.73,2.86,3.73c1.24,0,2.02-0.99,2.43-1.8c0.11-0.22,0.2-0.29,0.38-0.29
				c0.2,0,0.31,0.16,0.31,0.32C231.1,54.9,230.06,57.06,227.66,57.06z M229.57,50.54c-0.07-1.22-0.61-2.4-2.04-2.4
				c-1.62,0-2.36,1.57-2.45,3.15L229.57,50.54z"/>
			<path class="st1" d="M235.58,57.02c-0.77,0-2.11-0.29-2.11-2.45v-6.19h-1.01c-0.18,0-0.25-0.07-0.25-0.25v-0.34
				c0-0.18,0.07-0.27,0.25-0.27h1.01v-1.48c0-0.18,0.02-0.29,0.18-0.38l0.94-0.56c0.07-0.04,0.11-0.05,0.16-0.05
				c0.14,0,0.22,0.07,0.22,0.25v2.21h1.58c0.18,0,0.25,0.09,0.25,0.27v0.34c0,0.18-0.07,0.25-0.25,0.25h-1.58v6.21
				c0,1.31,0.65,1.57,1.17,1.57c0.22,0,0.31-0.05,0.47-0.05c0.25,0,0.36,0.13,0.36,0.31C236.97,56.75,236.39,57.02,235.58,57.02z"/>
			<path class="st1" d="M249.86,48l-2.5,8.57c-0.05,0.16-0.13,0.27-0.34,0.27h-0.74c-0.2,0-0.29-0.09-0.34-0.27l-1.71-5.64
				c-0.18-0.61-0.31-1.35-0.36-1.73h-0.04c-0.13,0.79-0.22,1.24-0.36,1.73l-1.71,5.64c-0.05,0.18-0.13,0.27-0.34,0.27h-0.74
				c-0.22,0-0.29-0.09-0.34-0.27l-2.5-8.57c-0.04-0.11-0.05-0.18-0.05-0.23c0-0.18,0.11-0.25,0.27-0.25h0.94
				c0.16,0,0.27,0.07,0.32,0.25l1.53,5.96c0.14,0.54,0.25,1.24,0.31,1.69h0.04c0.04-0.23,0.22-1.12,0.38-1.69l1.75-5.94
				c0.05-0.18,0.14-0.27,0.34-0.27h0.63c0.22,0,0.29,0.11,0.34,0.27l1.73,5.94c0.2,0.67,0.31,1.44,0.34,1.69h0.04
				c0.04-0.25,0.18-1.06,0.34-1.69l1.53-5.96c0.05-0.18,0.18-0.25,0.34-0.25h0.7c0.16,0,0.27,0.07,0.27,0.25
				C249.91,47.84,249.89,47.88,249.86,48z"/>
			<path class="st1" d="M255.13,57.06c-2.72,0-4.05-2.32-4.05-4.92s1.4-4.84,4.05-4.84s4.07,2.25,4.07,4.84
				S257.85,57.06,255.13,57.06z M255.08,48.17c-1.76,0-2.45,1.87-2.45,3.78c0,1.94,0.72,4.14,2.52,4.14c1.91,0,2.5-1.91,2.5-3.83
				S256.93,48.17,255.08,48.17z"/>
			<path class="st1" d="M265.62,49.05c-0.76,0-0.68-0.88-1.73-0.88c-0.81,0-1.3,0.38-1.3,1.03v7.38c0,0.18-0.09,0.27-0.27,0.27
				h-0.97c-0.18,0-0.25-0.09-0.25-0.27V48.9c0-0.56,0.2-0.85,0.7-1.1c0.5-0.25,1.46-0.5,2.47-0.5c1.46,0,2.04,0.5,2.04,1.08
				C266.31,48.78,266.07,49.05,265.62,49.05z"/>
			<path class="st1" d="M274.35,56.84h-1.1c-0.2,0-0.29-0.09-0.4-0.22l-3.28-3.94c-0.25-0.31-0.4-0.54-0.52-0.72h-0.04v4.61
				c0,0.18-0.09,0.27-0.27,0.27h-0.94c-0.18,0-0.25-0.09-0.25-0.27V43.34c0-0.18,0.07-0.27,0.25-0.27h0.94
				c0.18,0,0.27,0.09,0.27,0.27v8.35h0.04l3.69-3.98c0.11-0.13,0.18-0.2,0.38-0.2h0.9c0.2,0,0.25,0.09,0.25,0.22
				c0,0.09-0.04,0.14-0.13,0.25l-3.69,3.75l4.07,4.65c0.05,0.07,0.09,0.13,0.09,0.22C274.63,56.75,274.53,56.84,274.35,56.84z"/>
		</g>
	</g>
	<g>
		<g>
			<path class="st1" d="M160.25,90.89h-10.11c-0.41,0-0.62-0.21-0.62-0.62V70.63c0-0.41,0.21-0.62,0.62-0.62h3.49
				c0.41,0,0.59,0.21,0.59,0.62v17.15h6.03c0.41,0,0.59,0.21,0.59,0.62v1.86C160.84,90.68,160.66,90.89,160.25,90.89z"/>
			<path class="st1" d="M173.85,90.33c-0.74,0.47-2.84,0.95-4.82,0.95c-3.46,0-6.77-1.06-6.77-4.23c0-4.05,4.91-5,8.58-5.68v-1.95
				c0-1.27-0.77-2.01-1.83-2.01c-1.39,0-1.98,1.01-2.28,1.86c-0.33,0.98-0.98,1.36-1.92,1.36c-1.04,0-1.89-0.62-1.89-1.72
				c0-1.45,1.86-3.73,6.68-3.73c3.02,0,5.41,1.48,5.41,4.64v8.07C175,89.18,174.74,89.77,173.85,90.33z M170.83,83.23
				c-2.28,0.44-4.44,1.12-4.44,3.46c0,1.33,0.92,2.34,2.51,2.34c0.98,0,1.92-0.35,1.92-1.45V83.23z"/>
			<path class="st1" d="M190.76,90.89h-3.16c-0.41,0-0.59-0.21-0.59-0.62V79.92c0-1.27-0.59-2.42-2.48-2.42
				c-1.92,0-2.19,0.89-2.19,1.8v10.97c0,0.41-0.21,0.62-0.62,0.62h-3.13c-0.41,0-0.59-0.21-0.59-0.62v-12.3
				c0-1.04,0.27-1.45,1.21-1.89c1.06-0.5,3.16-0.89,5.44-0.89c3.7,0,6.71,1.21,6.71,4.52v10.56
				C191.35,90.68,191.18,90.89,190.76,90.89z"/>
			<path class="st1" d="M206.49,90.24c-0.8,0.53-2.93,1.03-4.94,1.03c-5.65,0-7.81-3.34-7.81-7.66c0-4.38,2.34-8.4,6.86-8.4
				c1.39,0,2.34,0.47,2.72,0.71v-7.04c0-0.41,0.18-0.62,0.59-0.62h3.11c0.41,0,0.62,0.21,0.62,0.62v19.1
				C207.65,89.12,207.35,89.68,206.49,90.24z M203.33,78.03c-0.38-0.27-0.92-0.56-1.83-0.56c-2.01,0-3.37,2.1-3.37,5.65
				c0,3.7,1.69,5.59,3.43,5.59c1.18,0,1.77-0.47,1.77-1.33V78.03z"/>
			<path class="st1" d="M216.9,91.28c-3.7,0-6.86-2.57-6.86-8.01c0-5.06,2.66-8.07,7.01-8.07c3.9,0,5.74,2.4,5.74,3.87
				c0,1.12-0.62,1.86-1.86,1.86c-1.01,0-1.54-0.53-1.92-1.57c-0.24-0.62-0.71-1.86-2.19-1.86s-2.75,1.6-2.75,4.58
				c0,3.02,1.21,5.71,3.9,5.71c1.66,0,2.42-1.09,3.02-2.01c0.24-0.35,0.56-0.56,0.98-0.56c0.53,0,0.89,0.41,0.89,0.98
				C222.84,88.44,220.51,91.28,216.9,91.28z"/>
			<path class="st1" d="M235.86,90.33c-0.74,0.47-2.84,0.95-4.82,0.95c-3.46,0-6.77-1.06-6.77-4.23c0-4.05,4.91-5,8.58-5.68v-1.95
				c0-1.27-0.77-2.01-1.83-2.01c-1.39,0-1.98,1.01-2.28,1.86c-0.33,0.98-0.98,1.36-1.92,1.36c-1.04,0-1.89-0.62-1.89-1.72
				c0-1.45,1.86-3.73,6.68-3.73c3.02,0,5.41,1.48,5.41,4.64v8.07C237.01,89.18,236.74,89.77,235.86,90.33z M232.84,83.23
				c-2.28,0.44-4.44,1.12-4.44,3.46c0,1.33,0.92,2.34,2.51,2.34c0.98,0,1.92-0.35,1.92-1.45V83.23z"/>
			<path class="st1" d="M248.95,79.57c-1.95,0-1.45-2.04-3.1-2.04c-0.92,0-1.51,0.47-1.51,1.27v11.47c0,0.41-0.21,0.62-0.62,0.62
				h-3.13c-0.41,0-0.59-0.21-0.59-0.62v-12.3c0-1.04,0.3-1.45,1.24-1.89c0.98-0.44,2.9-0.89,5.03-0.89c3.13,0,4.41,1.09,4.41,2.51
				C250.67,78.83,250.08,79.57,248.95,79.57z"/>
			<path class="st1" d="M258.68,91.28c-3.96,0-7.16-2.42-7.16-8.16c0-5.5,3.34-7.93,7.13-7.93c3.7,0,6.09,2.75,6.09,6
				c0,0.86-0.35,1.09-1.09,1.21l-8.13,1.33c0.27,2.28,1.51,4.17,4.02,4.17c1.72,0,2.9-1.18,3.49-2.04c0.21-0.3,0.5-0.53,0.92-0.53
				c0.47,0,0.86,0.41,0.86,0.95C264.8,88.47,262.32,91.28,258.68,91.28z M258.18,77.49c-2.07,0-2.87,2.16-2.93,4.14l5.44-0.92
				C260.63,79.12,260.01,77.49,258.18,77.49z"/>
		</g>
	</g>
</g>
<g id="Colour_Inline_Reverse">
</g>
<g id="Monochrome_Stacked_Positive">
</g>
<g id="Monochrome_Stacked_Reverse">
</g>
<g id="Monochrome_Inline_Positive">
</g>
<g id="Monochrome_Inline_Reverse">
</g>
</svg>
